<svg xmlns="http://www.w3.org/2000/svg" viewBox="0 0 32 32">
  <defs>
    <linearGradient id="dnaGradient" x1="0%" y1="0%" x2="100%" y2="100%">
      <stop offset="0%" style="stop-color:#00D4FF;stop-opacity:1" />
      <stop offset="100%" style="stop-color:#8B5CF6;stop-opacity:1" />
    </linearGradient>
  </defs>
  <path d="M8 4 C8 4 10 8 16 8 C22 8 24 4 24 4" stroke="url(#dnaGradient)" stroke-width="2.5" fill="none" stroke-linecap="round"/>
  <path d="M8 12 C8 12 10 16 16 16 C22 16 24 12 24 12" stroke="url(#dnaGradient)" stroke-width="2.5" fill="none" stroke-linecap="round"/>
  <path d="M8 20 C8 20 10 24 16 24 C22 24 24 20 24 20" stroke="url(#dnaGradient)" stroke-width="2.5" fill="none" stroke-linecap="round"/>
  <path d="M8 28 C8 28 10 32 16 32 C22 32 24 28 24 28" stroke="url(#dnaGradient)" stroke-width="2.5" fill="none" stroke-linecap="round"/>
  <line x1="8" y1="4" x2="8" y2="28" stroke="url(#dnaGradient)" stroke-width="2" stroke-linecap="round"/>
  <line x1="24" y1="4" x2="24" y2="28" stroke="url(#dnaGradient)" stroke-width="2" stroke-linecap="round"/>
  <circle cx="11" cy="10" r="1.5" fill="#00D4FF"/>
  <circle cx="21" cy="10" r="1.5" fill="#8B5CF6"/>
  <circle cx="11" cy="18" r="1.5" fill="#8B5CF6"/>
  <circle cx="21" cy="18" r="1.5" fill="#00D4FF"/>
  <circle cx="11" cy="26" r="1.5" fill="#00D4FF"/>
  <circle cx="21" cy="26" r="1.5" fill="#8B5CF6"/>
</svg>
